<svg width="21" height="21" viewBox="0 0 21 21" fill="none" xmlns="http://www.w3.org/2000/svg">
<path fill-rule="evenodd" clip-rule="evenodd" d="M10.1029 2.92969C9.9897 2.92969 9.88108 2.97468 9.801 3.05476C9.72092 3.13484 9.67593 3.24345 9.67593 3.3567V9.76187H3.27076C3.15751 9.76187 3.0489 9.80686 2.96882 9.88694C2.88874 9.96702 2.84375 10.0756 2.84375 10.1889V11.0429C2.84375 11.1562 2.88874 11.2648 2.96882 11.3448C3.0489 11.4249 3.15751 11.4699 3.27076 11.4699H9.67593V17.8751C9.67593 17.9883 9.72092 18.097 9.801 18.177C9.88108 18.2571 9.9897 18.3021 10.1029 18.3021H10.957C11.0702 18.3021 11.1788 18.2571 11.2589 18.177C11.339 18.097 11.384 17.9883 11.384 17.8751V11.4699H17.7892C17.9024 11.4699 18.011 11.4249 18.0911 11.3448C18.1712 11.2648 18.2162 11.1562 18.2162 11.0429V10.1889C18.2162 10.0756 18.1712 9.96702 18.0911 9.88694C18.011 9.80686 17.9024 9.76187 17.7892 9.76187H11.384V3.3567C11.384 3.24345 11.339 3.13484 11.2589 3.05476C11.1788 2.97468 11.0702 2.92969 10.957 2.92969H10.1029Z" fill="#2E2E2E"/>
</svg>
