<svg width="414" height="482" viewBox="0 0 414 482" fill="none" xmlns="http://www.w3.org/2000/svg">
<path d="M326.183 61.3332C357.055 87.0283 384.135 114.2 406.612 146.984C429.089 180.062 389.791 223.675 396.02 266.5C402.248 309.325 424.485 345.456 406.612 387.69C396.02 412.721 384.018 428.895 346.918 445.139C318.849 464.437 277.183 481.103 231.132 481.103C187.713 481.103 159.644 478.472 121.926 458.297C89.4706 430.666 36.4205 420.178 16.6516 387.69C-3.38799 355.202 0.132488 306.47 0.403294 257.738C0.674099 209.302 -2.30477 160.569 13.1312 119.812C28.5671 79.054 62.4178 46.2706 100.872 25.301C139.327 4.33147 182.656 -4.52891 221.652 3.15008C260.648 11.1244 295.311 35.6381 326.183 61.3332Z" fill="url(#paint0_linear_1378_11255)"/>
<defs>
<linearGradient id="paint0_linear_1378_11255" x1="228.062" y1="0.417969" x2="228.062" y2="481.103" gradientUnits="userSpaceOnUse">
<stop stop-color="#23B2FF"/>
<stop offset="1" stop-color="#23B2FF" stop-opacity="0.5"/>
</linearGradient>
</defs>
</svg>
