<svg width="34" height="44" viewBox="0 0 34 44" fill="none" xmlns="http://www.w3.org/2000/svg">
<path d="M19.9793 28.2901C19.9793 29.9774 18.6116 31.3449 16.9245 31.3449C15.2374 31.3449 13.8697 29.9774 13.8697 28.2901C13.8697 26.603 15.2374 25.2353 16.9245 25.2353C18.6116 25.2353 19.9793 26.603 19.9793 28.2901ZM7.76008 13.0161V9.96125C7.76008 4.89993 11.8632 0.796875 16.9245 0.796875C21.9859 0.796875 26.089 4.89993 26.089 9.96125V13.0161H28.3801C31.3325 13.0161 33.726 15.4096 33.726 18.362V38.2183C33.726 41.1708 31.3325 43.5642 28.3801 43.5642H5.46897C2.51649 43.5642 0.123047 41.1708 0.123047 38.2183V18.362C0.123047 15.4096 2.51649 13.0161 5.46897 13.0161H7.76008ZM10.8149 9.96125V13.0161H23.0341V9.96125C23.0341 6.58707 20.2987 3.85169 16.9245 3.85169C13.5503 3.85169 10.8149 6.58707 10.8149 9.96125ZM5.46897 16.0709C4.20363 16.0709 3.17786 17.0967 3.17786 18.362V38.2183C3.17786 39.4837 4.20363 40.5094 5.46897 40.5094H28.3801C29.6454 40.5094 30.6712 39.4837 30.6712 38.2183V18.362C30.6712 17.0967 29.6454 16.0709 28.3801 16.0709H5.46897Z" fill="#23B2FF"/>
</svg>
