<svg width="24" height="25" viewBox="0 0 24 25" fill="none" xmlns="http://www.w3.org/2000/svg">
<g clip-path="url(#clip0_1378_11494)">
<path d="M20.2135 21.0894H9.0132L3.83398 15.9102" stroke="#23B2FF" stroke-width="0.746689" stroke-linecap="round" stroke-linejoin="round"/>
<path d="M15.3607 9.51953L6.40039 18.4798" stroke="#23B2FF" stroke-width="0.746689" stroke-linecap="round" stroke-linejoin="round"/>
<path d="M9.01393 21.0919H4.5338C4.33576 21.0919 4.14584 21.0133 4.00581 20.8732C3.86578 20.7332 3.78711 20.5433 3.78711 20.3452V16.1741C3.7872 15.9763 3.86575 15.7866 4.00552 15.6467L15.5157 4.1365C15.6557 3.99657 15.8456 3.91797 16.0435 3.91797C16.2415 3.91797 16.4313 3.99657 16.5714 4.1365L20.7425 8.30489C20.8825 8.4449 20.9611 8.63475 20.9611 8.8327C20.9611 9.03065 20.8825 9.2205 20.7425 9.36052L9.01393 21.0919Z" stroke="#23B2FF" stroke-width="0.746689" stroke-linecap="round" stroke-linejoin="round"/>
<path d="M12.7461 6.90625L17.9729 12.1331" stroke="#23B2FF" stroke-width="0.746689" stroke-linecap="round" stroke-linejoin="round"/>
</g>
<defs>
<clipPath id="clip0_1378_11494">
<rect x="0.0527344" y="0.929688" width="23.894" height="23.894" rx="5.43046" fill="white"/>
</clipPath>
</defs>
</svg>
