<svg width="42" height="42" viewBox="0 0 42 42" fill="none" xmlns="http://www.w3.org/2000/svg">
<path d="M20.9868 0.816406C23.4383 0.816406 25.7885 1.24943 27.9653 2.04316L25.5341 4.47448C24.085 4.08113 22.5604 3.87122 20.9868 3.87122C11.4242 3.87122 3.672 11.6233 3.672 21.1861C3.672 30.7489 11.4242 38.501 20.9868 38.501C30.5496 38.501 38.3018 30.7489 38.3018 21.1861C38.3018 19.6146 38.0924 18.0921 37.7001 16.6448L40.1318 14.2132C40.9243 16.3885 41.3566 18.7368 41.3566 21.1861C41.3566 32.436 32.2367 41.5558 20.9868 41.5558C9.73706 41.5558 0.617188 32.436 0.617188 21.1861C0.617188 9.93621 9.73706 0.816406 20.9868 0.816406ZM20.9868 8.96685C22.0431 8.96685 23.0679 9.1009 24.0454 9.35274L24.0456 12.5445C23.0889 12.2059 22.0594 12.0217 20.9868 12.0217C15.9255 12.0217 11.8224 16.1248 11.8224 21.1861C11.8224 26.2474 15.9255 30.3505 20.9868 30.3505C26.0482 30.3505 30.1513 26.2474 30.1513 21.1861C30.1513 20.115 29.9675 19.0868 29.6298 18.1313H32.8212C33.0724 19.1077 33.2061 20.1313 33.2061 21.1861C33.2061 27.9347 27.7353 33.4054 20.9868 33.4054C14.2383 33.4054 8.76759 27.9347 8.76759 21.1861C8.76759 14.4377 14.2383 8.96685 20.9868 8.96685ZM25.0599 21.1861C25.0599 23.4357 23.2363 25.2591 20.9868 25.2591C18.7373 25.2591 16.9138 23.4357 16.9138 21.1861C16.9138 18.9367 18.7373 17.1131 20.9868 17.1131C21.5522 17.1131 22.0907 17.2283 22.5801 17.4365L26.0821 13.9345L26.0819 7.43953C26.0819 7.03443 26.2428 6.64592 26.5292 6.35946L31.6205 1.26798C32.0574 0.83113 32.7143 0.700433 33.285 0.936839C33.8558 1.17326 34.228 1.73021 34.228 2.34799V7.94853L39.8288 7.94862C40.4466 7.94864 41.0036 8.32079 41.24 8.89158C41.4764 9.46235 41.3457 10.1193 40.9089 10.5561L35.8173 15.6475C35.5309 15.9339 35.1425 16.0948 34.7374 16.0948H28.242L24.7388 19.5981C24.9455 20.086 25.0599 20.6227 25.0599 21.1861ZM34.1047 13.04L36.1414 11.0033H32.7006C31.857 11.0033 31.1732 10.3194 31.1732 9.47591V6.0356L29.1367 8.0721L29.137 12.9199C29.1579 12.9386 29.1784 12.958 29.1985 12.9782C29.2187 12.9984 29.2381 13.019 29.257 13.04H34.1047Z" fill="#23B2FF"/>
</svg>
