<svg width="46" height="46" viewBox="0 0 46 46" fill="none" xmlns="http://www.w3.org/2000/svg">
<g clip-path="url(#clip0_1378_3349)">
<path d="M11.4668 35.8269C12.5484 33.6965 14.1987 31.9073 16.2349 30.6575C18.2711 29.4077 20.6136 28.7461 23.0027 28.7461C25.3919 28.7461 27.7344 29.4077 29.7706 30.6575C31.8068 31.9073 33.4571 33.6965 34.5387 35.8269" stroke="#FAFAFA" stroke-linecap="round" stroke-linejoin="round"/>
<path d="M23 40.25C32.5269 40.25 40.25 32.5269 40.25 23C40.25 13.4731 32.5269 5.75 23 5.75C13.4731 5.75 5.75 13.4731 5.75 23C5.75 32.5269 13.4731 40.25 23 40.25Z" stroke="#FAFAFA" stroke-linecap="round" stroke-linejoin="round"/>
<path d="M23 28.75C26.9695 28.75 30.1875 25.532 30.1875 21.5625C30.1875 17.593 26.9695 14.375 23 14.375C19.0305 14.375 15.8125 17.593 15.8125 21.5625C15.8125 25.532 19.0305 28.75 23 28.75Z" stroke="#FAFAFA" stroke-linecap="round" stroke-linejoin="round"/>
</g>
<defs>
<clipPath id="clip0_1378_3349">
<rect width="46" height="46" fill="white"/>
</clipPath>
</defs>
</svg>
