<svg width="51" height="51" viewBox="0 0 51 51" fill="none" xmlns="http://www.w3.org/2000/svg">
<mask id="mask0_1359_44753" style="mask-type:luminance" maskUnits="userSpaceOnUse" x="0" y="1" width="50" height="50">
<path d="M49.6101 1.28516H0.474609V50.4206H49.6101V1.28516Z" fill="white"/>
</mask>
<g mask="url(#mask0_1359_44753)">
<path d="M25.0492 5.89844C21.1012 5.89844 17.2419 7.06914 13.9593 9.26252C10.6767 11.4559 8.11818 14.5735 6.60736 18.2208C5.09654 21.8683 4.70124 25.8818 5.47145 29.754C6.24166 33.6261 8.14279 37.1829 10.9344 39.9745C13.7261 42.7661 17.2828 44.6673 21.155 45.4375C25.027 46.2077 29.0406 45.8124 32.688 44.3016C36.3355 42.7907 39.453 40.2323 41.6464 36.9497C43.8398 33.667 45.0105 29.8077 45.0105 25.8598C45.0039 20.5677 42.8987 15.4943 39.1567 11.7523C35.4147 8.01022 30.3413 5.90504 25.0492 5.89844ZM32.0433 27.138L22.8304 33.2799C22.5778 33.4475 22.2814 33.5369 21.9782 33.5372C21.571 33.5372 21.1804 33.3754 20.8925 33.0874C20.6045 32.7994 20.4428 32.4089 20.4428 32.0017V19.7178C20.4426 19.4397 20.5179 19.1669 20.6607 18.9283C20.8035 18.6897 21.0083 18.4944 21.2535 18.3631C21.4986 18.2318 21.7748 18.1697 22.0525 18.1831C22.3303 18.1966 22.5992 18.2852 22.8304 18.4395L32.0433 24.5815C32.254 24.7216 32.4266 24.9117 32.5461 25.1347C32.6656 25.3576 32.7281 25.6068 32.7281 25.8598C32.7281 26.1127 32.6656 26.3618 32.5461 26.5848C32.4266 26.8078 32.254 26.9979 32.0433 27.138Z" fill="white"/>
</g>
</svg>
