<svg width="36" height="36" viewBox="0 0 36 36" fill="none" xmlns="http://www.w3.org/2000/svg">
<g clip-path="url(#clip0_1378_11486)">
<path d="M15.4629 13.4531H19.8073L15.4629 19.9697H19.8073" stroke="#FAFAFA" stroke-width="1.62914" stroke-linecap="round" stroke-linejoin="round"/>
<path d="M13.291 26.4844C13.291 27.6366 13.7487 28.7416 14.5635 29.5563C15.3782 30.371 16.4832 30.8287 17.6354 30.8287C18.7876 30.8287 19.8926 30.371 20.7073 29.5563C21.522 28.7416 21.9798 27.6366 21.9798 26.4844" stroke="#FAFAFA" stroke-width="1.62914" stroke-linecap="round" stroke-linejoin="round"/>
<path d="M7.86097 14.5405C7.86097 11.948 8.89081 9.46174 10.7239 7.62861C12.5571 5.79547 15.0434 4.76563 17.6358 4.76562C20.2282 4.76563 22.7145 5.79547 24.5476 7.62861C26.3808 9.46174 27.4106 11.948 27.4106 14.5405C27.4106 19.4034 28.5375 23.3107 29.4335 24.8583C29.5286 25.0232 29.5788 25.2101 29.579 25.4004C29.5792 25.5908 29.5293 25.7778 29.4344 25.9428C29.3396 26.1078 29.203 26.2449 29.0384 26.3405C28.8739 26.4361 28.6871 26.4868 28.4967 26.4875H6.77487C6.58478 26.4863 6.39831 26.4353 6.23412 26.3395C6.06992 26.2437 5.93374 26.1065 5.83919 25.9416C5.74464 25.7767 5.69502 25.5899 5.69531 25.3998C5.6956 25.2097 5.74578 25.023 5.84083 24.8583C6.7355 23.3107 7.86097 19.4021 7.86097 14.5405Z" stroke="#FAFAFA" stroke-width="1.62914" stroke-linecap="round" stroke-linejoin="round"/>
</g>
<defs>
<clipPath id="clip0_1378_11486">
<rect width="34.755" height="34.755" fill="white" transform="translate(0.257812 0.421875)"/>
</clipPath>
</defs>
</svg>
