<svg width="25" height="25" viewBox="0 0 25 25" fill="none" xmlns="http://www.w3.org/2000/svg">
<g clip-path="url(#clip0_1378_11501)">
<path d="M21.0541 6.15625H4.62695" stroke="#EB001B" stroke-width="0.746689" stroke-linecap="round" stroke-linejoin="round"/>
<path d="M10.6016 10.6367V16.6102" stroke="#EB001B" stroke-width="0.746689" stroke-linecap="round" stroke-linejoin="round"/>
<path d="M15.082 10.6367V16.6102" stroke="#EB001B" stroke-width="0.746689" stroke-linecap="round" stroke-linejoin="round"/>
<path d="M19.5615 6.15625V20.3433C19.5615 20.5414 19.4828 20.7313 19.3428 20.8713C19.2028 21.0114 19.0128 21.09 18.8148 21.09H6.86778C6.66975 21.09 6.47983 21.0114 6.33979 20.8713C6.19976 20.7313 6.12109 20.5414 6.12109 20.3433V6.15625" stroke="#EB001B" stroke-width="0.746689" stroke-linecap="round" stroke-linejoin="round"/>
<path d="M16.5743 6.15863V4.66525C16.5743 4.26918 16.417 3.88934 16.1369 3.60928C15.8568 3.32921 15.477 3.17188 15.0809 3.17188H10.6008C10.2047 3.17188 9.82488 3.32921 9.54482 3.60928C9.26476 3.88934 9.10742 4.26918 9.10742 4.66525V6.15863" stroke="#EB001B" stroke-width="0.746689" stroke-linecap="round" stroke-linejoin="round"/>
</g>
<defs>
<clipPath id="clip0_1378_11501">
<rect width="23.894" height="23.894" fill="white" transform="translate(0.894531 0.929688)"/>
</clipPath>
</defs>
</svg>
