<svg width="117" height="113" viewBox="0 0 117 113" fill="none" xmlns="http://www.w3.org/2000/svg">
<path opacity="0.01" d="M116.464 112.223L0.392578 111.962V0.0859375L116.464 0.347057V112.223Z" fill="white"/>
<path d="M58.4252 110.263C57.2281 110.263 56.2578 109.34 56.2578 108.201V100.84C56.2578 99.7002 57.2281 98.7773 58.4252 98.7773C59.6221 98.7773 60.5926 99.7002 60.5926 100.84V108.201C60.5926 109.34 59.6221 110.263 58.4252 110.263Z" fill="#23B2FF"/>
<path d="M58.4252 15.511C57.2281 15.511 56.2578 14.588 56.2578 13.4484V6.08991C56.2578 4.95033 57.2281 4.02734 58.4252 4.02734C59.6221 4.02734 60.5926 4.95033 60.5926 6.08991V13.4484C60.5926 14.588 59.6221 15.511 58.4252 15.511Z" fill="#23B2FF"/>
<path d="M112.326 59.2071H104.54C103.343 59.2071 102.373 58.2842 102.373 57.1446C102.373 56.0049 103.343 55.082 104.54 55.082H112.326C113.523 55.082 114.494 56.0049 114.494 57.1446C114.494 58.2842 113.523 59.2071 112.326 59.2071Z" fill="#23B2FF"/>
<path d="M12.3001 59.2071H4.52479C3.32778 59.2071 2.35742 58.2842 2.35742 57.1446C2.35742 56.0049 3.32778 55.082 4.52479 55.082H12.3001C13.4971 55.082 14.4674 56.0049 14.4674 57.1446C14.4674 58.2842 13.4971 59.2071 12.3001 59.2071Z" fill="#23B2FF"/>
<path d="M91.0261 28.3245C90.4701 28.3245 89.9141 28.1223 89.4892 27.7168C88.6462 26.9093 88.6497 25.6028 89.498 24.7995L95.012 19.5778C95.8601 18.7736 97.229 18.7762 98.0771 19.5854C98.9201 20.3929 98.9166 21.6994 98.0682 22.5027L92.5543 27.7243C92.1311 28.1249 91.5787 28.3245 91.0261 28.3245Z" fill="#23B2FF"/>
<path d="M20.313 95.308C19.757 95.308 19.201 95.1055 18.7777 94.7003C17.9331 93.8927 17.9367 92.587 18.7848 91.7829L24.3043 86.5544C25.1524 85.7502 26.5228 85.7527 27.3676 86.5619C28.2122 87.3695 28.2086 88.6752 27.3605 89.4792L21.841 94.7077C21.4179 95.1081 20.8654 95.308 20.313 95.308Z" fill="#23B2FF"/>
<path d="M25.8252 28.3245C25.2728 28.3245 24.7204 28.1249 24.2972 27.7243L18.7848 22.5027C17.9367 21.6994 17.9331 20.3929 18.7777 19.5854C19.6206 18.7762 20.9911 18.7736 21.841 19.5778L27.3534 24.7995C28.2015 25.6036 28.2051 26.9093 27.3605 27.7168C26.9373 28.1223 26.3812 28.3245 25.8252 28.3245Z" fill="#23B2FF"/>
<path d="M96.5413 95.308C95.9888 95.308 95.4364 95.1081 95.0131 94.7077L89.4938 89.4792C88.6457 88.6752 88.6421 87.3695 89.4867 86.5619C90.3295 85.7527 91.7001 85.7502 92.55 86.5544L98.0695 91.7829C98.9176 92.587 98.9211 93.8927 98.0766 94.7003C97.6534 95.1055 97.0972 95.308 96.5413 95.308Z" fill="#23B2FF"/>
<path fill-rule="evenodd" clip-rule="evenodd" d="M93.851 39.4042C93.27 38.8959 92.4432 38.7257 91.696 38.9667L87.9738 40.1543C81.176 42.3223 73.8168 43.1628 68.4427 43.7754C66.8598 43.9564 65.5325 44.1141 64.3702 44.2727C64.4438 22.3547 40.6712 13.143 40.4192 13.0838C39.7993 12.938 39.1442 13.0594 38.6271 13.4151C38.1101 13.7716 37.7844 14.3271 37.7365 14.9323C37.6799 15.6538 36.3783 32.6795 39.0273 39.4371C39.4684 40.5612 39.9771 41.6312 40.4776 42.6707C39.5425 42.3129 38.5193 42.0744 37.407 42.0744C32.9857 42.0744 30.8696 44.2745 29.2441 45.9644L29.1693 46.0417C28.9751 46.2428 28.781 46.4436 28.5659 46.6439C27.9903 47.19 27.3741 47.732 26.8182 48.2083L23.6185 50.9511C23.011 51.4729 22.7631 52.2761 22.9792 53.028C23.1934 53.7798 23.8363 54.3513 24.6384 54.5065L28.8581 55.319C29.7363 55.4876 31.307 55.9251 31.9568 56.9465C32.4083 57.6581 32.8529 59.2628 33.3398 61.0261C34.4305 64.9795 35.7905 69.9003 39.4894 73.733C44.4524 78.875 49.6154 79.9845 52.3926 80.5816L52.3964 80.5824C52.6336 80.633 52.9913 80.7097 53.2887 80.7813C53.6074 81.6731 54.2858 84.2406 54.755 90.7418L54.8948 92.7058C54.9728 93.7898 55.92 94.6284 57.0569 94.6284H57.103L59.1694 94.5863C67.7432 94.4144 75.8408 91.7077 82.5873 86.76L85.4399 84.6662C86.0419 84.2245 86.3571 83.5149 86.2703 82.7958C86.1818 82.0768 85.7055 81.4539 85.0132 81.1547L81.7355 79.7369C68.7913 74.1367 66.4788 72.8829 66.2024 72.733L66.1762 72.7189C65.9868 72.5579 65.7105 72.2595 65.3775 71.8373C86.3429 67.0428 92.2254 50.2701 93.5606 45.0423L94.4901 41.412C94.6761 40.682 94.4317 39.9124 93.851 39.4042ZM41.8693 18.2904C47.642 21.2927 60.5859 29.7689 60.0317 45.1425C59.7502 45.2359 59.4868 45.3358 59.2422 45.4448C58.9932 45.5552 58.7642 45.6732 58.5515 45.8009C57.7118 46.3026 56.9222 46.8125 56.1878 47.3043L56.1463 47.3315L56.1022 47.3604C55.4022 47.8304 54.7632 48.2776 54.1807 48.6858L54.1085 48.7358L54.0326 48.7883C53.2878 49.3079 52.5356 49.8314 51.8264 50.2919C51.8113 50.3017 51.7957 50.3122 51.7802 50.3226C51.7641 50.3334 51.7477 50.3442 51.732 50.3545L51.7135 50.3659L51.6936 50.3783C50.4835 51.1557 49.4149 51.7282 48.7645 51.7282C48.6628 51.7282 48.5495 51.6747 48.436 51.6128L48.4019 51.5937C48.3669 51.5742 48.3321 51.5549 48.2967 51.5295C48.2707 51.5114 48.2451 51.4898 48.2194 51.4682C48.2064 51.4571 48.1932 51.4461 48.1802 51.4355C48.05 51.3291 47.9221 51.2104 47.8102 51.0918C47.2631 46.8739 45.8128 43.8572 44.5255 41.1811C43.9995 40.0904 43.5055 39.0595 43.0859 37.994C41.4921 33.9245 41.5824 24.1654 41.8693 18.2904ZM59.8653 69.5395C60.168 68.9267 60.7683 68.4952 61.4696 68.3839C82.4209 65.0621 88.1048 48.9341 89.3498 44.0671C82.1356 46.3675 74.529 47.2361 68.9717 47.8705L68.9597 47.8719C66.3981 48.1645 64.0914 48.432 62.5351 48.7617C61.9191 48.8926 61.5217 49.013 61.2495 49.1166C61.1037 49.1735 60.964 49.2305 60.8617 49.2917C59.5123 50.0985 58.3197 50.9179 57.2202 51.6842C57.1234 51.7516 57.0213 51.8217 56.9198 51.8913C56.8092 51.9673 56.6995 52.0426 56.5983 52.1134C56.1466 52.4284 55.7136 52.728 55.2883 53.0188C52.8906 54.6585 50.8646 55.8533 48.7645 55.8533C48.3108 55.8533 47.8723 55.7925 47.4456 55.6772C47.3156 55.6424 47.1903 55.585 47.0649 55.5273C46.9992 55.4972 46.9337 55.4671 46.8674 55.4404C46.807 55.4158 46.7464 55.3926 46.6857 55.3693C46.5259 55.3085 46.3658 55.2476 46.2115 55.1588C46.0217 55.0504 45.8381 54.9066 45.655 54.7628C45.6072 54.7252 45.5594 54.6877 45.5114 54.6509C45.4569 54.6086 45.4018 54.5692 45.3467 54.5299C45.2456 54.4573 45.1443 54.3849 45.0461 54.2952C44.8344 54.1028 44.629 53.8675 44.4242 53.6326C44.3981 53.6025 44.3719 53.5726 44.3457 53.5427C44.2971 53.4872 44.2476 53.4372 44.1982 53.3875C44.1307 53.3194 44.0632 53.2513 43.9977 53.1687C43.9893 53.1581 43.9832 53.1461 43.9773 53.1341C43.9717 53.1235 43.9662 53.1126 43.9592 53.1028C43.933 53.0694 43.9058 53.0408 43.8789 53.0125C43.8486 52.9804 43.8181 52.9484 43.7888 52.9092C43.1903 52.1075 42.7672 51.2232 42.321 50.286L42.3139 50.2714C41.9997 49.6128 41.7076 49.0006 41.37 48.4324C40.922 47.6756 39.2504 46.1997 37.407 46.1997C34.8942 46.1997 33.8474 47.2874 32.5224 48.6643L32.5198 48.6669C32.1693 49.0318 31.9019 49.3075 31.6151 49.5772C30.9936 50.1638 30.3241 50.7546 29.7186 51.274C32.4738 51.805 34.5296 53.028 35.6648 54.8106C36.4401 56.0315 36.9353 57.8224 37.5089 59.8967L37.5135 59.9128C38.5014 63.49 39.709 67.8622 42.6804 70.9412C46.7281 75.1355 50.7123 75.9911 53.3489 76.5567C54.909 76.8913 55.7536 77.0928 56.3753 77.6794C56.8568 78.1414 58.2875 79.5136 59.0791 90.4603C66.7215 90.307 73.9355 87.8979 79.9419 83.4921C64.8512 76.9653 63.7629 76.1548 63.405 75.8884C62.0468 74.7479 60.6638 72.6246 59.9502 71.4529C59.5944 70.867 59.5625 70.1515 59.8653 69.5395Z" fill="#606060"/>
</svg>
