<svg width="23" height="19" viewBox="0 0 23 19" fill="none" xmlns="http://www.w3.org/2000/svg">
<g clip-path="url(#clip0_1359_44693)">
<g clip-path="url(#clip1_1359_44693)">
<g clip-path="url(#clip2_1359_44693)">
<path d="M6.39105 3.94952L9.9649 7.47471H-5.95571C-6.72986 7.47471 -7.35742 8.10228 -7.35742 8.87642V9.6401C-7.35742 10.4142 -6.72986 11.0418 -5.95571 11.0418H9.9649L6.39105 14.567C5.83991 15.1106 5.83382 15.9981 6.37745 16.5493C6.38428 16.5562 6.39119 16.563 6.39816 16.5698L6.95556 17.1119C7.50239 17.6437 8.37408 17.6406 8.91713 17.1049L15.8604 10.2562C16.4116 9.71256 16.4177 8.82506 15.874 8.27392C15.8695 8.26936 15.865 8.26483 15.8604 8.26033L8.91713 1.41159C8.37408 0.875935 7.50239 0.872845 6.95556 1.40464L6.39816 1.94671C5.84317 2.48642 5.83078 3.37385 6.3705 3.92883C6.37728 3.9358 6.38414 3.9427 6.39105 3.94952Z" fill="#23B2FF"/>
</g>
</g>
</g>
<defs>
<clipPath id="clip0_1359_44693">
<rect width="36.4444" height="18.2222" fill="white" transform="translate(-13.9668 0.453125)"/>
</clipPath>
<clipPath id="clip1_1359_44693">
<rect width="36.4444" height="18.2222" fill="white" transform="translate(-13.9668 0.453125)"/>
</clipPath>
<clipPath id="clip2_1359_44693">
<rect width="25.2308" height="18.2222" fill="white" transform="translate(-8.36133 0.453125)"/>
</clipPath>
</defs>
</svg>
