<svg width="38" height="39" viewBox="0 0 38 39" fill="none" xmlns="http://www.w3.org/2000/svg">
<path fill-rule="evenodd" clip-rule="evenodd" d="M0 19.4995C0 9.07756 8.44865 0.628906 18.8706 0.628906C29.2925 0.628906 37.7412 9.07756 37.7412 19.4995C37.7412 29.9214 29.2925 38.3701 18.8706 38.3701C8.44865 38.3701 0 29.9214 0 19.4995ZM18.8706 10.0642C24.06 10.0642 28.3059 14.3101 28.3059 19.4995C28.3059 24.2171 24.8856 28.2271 20.1679 28.9348V22.2121H22.4088L22.8806 19.4995H20.2859V17.7304C20.2859 17.0227 20.6397 16.3151 21.8191 16.3151H22.9985V13.9563C22.9985 13.9563 21.9371 13.7204 20.8756 13.7204C18.7526 13.7204 17.3374 15.0177 17.3374 17.3766V19.4995H14.9785V22.2121H17.3374V28.8168C12.8556 28.1092 9.43529 24.2171 9.43529 19.4995C9.43529 14.3101 13.6812 10.0642 18.8706 10.0642Z" fill="#23B2FF"/>
</svg>
