<svg width="51" height="51" viewBox="0 0 51 51" fill="none" xmlns="http://www.w3.org/2000/svg">
<path d="M43.5662 38.8871L31.7881 19.2504V8.38294H33.3155C33.7206 8.38294 34.109 8.22201 34.3954 7.93557C34.682 7.64912 34.8429 7.26062 34.8429 6.85553C34.8429 6.45044 34.682 6.06194 34.3954 5.7755C34.109 5.48905 33.7206 5.32812 33.3155 5.32812H18.0414C17.6362 5.32812 17.2478 5.48905 16.9614 5.7755C16.675 6.06194 16.514 6.45044 16.514 6.85553C16.514 7.26062 16.675 7.64912 16.9614 7.93557C17.2478 8.22201 17.6362 8.38294 18.0414 8.38294H19.5688V19.2504L7.79059 38.8871C7.51279 39.3502 7.36274 39.8787 7.35573 40.4188C7.3487 40.9588 7.48497 41.4909 7.75063 41.9611C8.01629 42.4313 8.40184 42.8227 8.86802 43.0954C9.33418 43.3681 9.8643 43.5122 10.4044 43.5132H40.9525C41.493 43.5132 42.0239 43.3698 42.4908 43.0975C42.9578 42.8253 43.3442 42.434 43.6106 41.9637C43.8769 41.4933 44.0136 40.9607 44.0069 40.4202C44.0001 39.8797 43.85 39.3507 43.572 38.8871H43.5662ZM22.4059 20.459C22.5488 20.2222 22.624 19.9508 22.6237 19.6743V8.38294H28.7333V19.6743C28.7328 19.9508 28.8081 20.2222 28.9509 20.459L36.2481 32.6305C33.957 33.083 30.6979 32.8921 26.3676 30.7002C23.3301 29.1633 20.4395 28.348 17.734 28.2546L22.4059 20.459ZM10.4044 40.4584L15.8533 31.3743C18.5741 31.042 21.6404 31.7274 24.9834 33.421C28.6111 35.2557 31.6659 35.8801 34.1479 35.8801C35.4103 35.8856 36.6669 35.7121 37.8805 35.3646L40.9525 40.4584H10.4044Z" fill="#23B2FF"/>
</svg>
