<svg width="39" height="39" viewBox="0 0 39 39" fill="none" xmlns="http://www.w3.org/2000/svg">
<path d="M19.2007 22.8018C17.4315 22.8018 15.8983 21.3865 15.8983 19.4995C15.8983 17.7304 17.3136 16.1971 19.2007 16.1971C20.9698 16.1971 22.503 17.6124 22.503 19.4995C22.503 21.2686 20.9698 22.8018 19.2007 22.8018Z" fill="#23B2FF"/>
<path fill-rule="evenodd" clip-rule="evenodd" d="M23.2107 11.4795H15.1907C14.2471 11.5974 13.7754 11.7154 13.4215 11.8333C12.9498 11.9513 12.596 12.1871 12.2421 12.541C11.9622 12.8209 11.8299 13.1009 11.67 13.4393C11.6278 13.5285 11.5837 13.622 11.5345 13.7204C11.5162 13.7751 11.4952 13.8327 11.4726 13.8944C11.3492 14.2315 11.1807 14.6919 11.1807 15.4895V23.5095C11.2986 24.453 11.4165 24.9248 11.5345 25.2786C11.6524 25.7504 11.8883 26.1042 12.2421 26.458C12.5221 26.738 12.8021 26.8703 13.1405 27.0302C13.2298 27.0723 13.3231 27.1164 13.4215 27.1657C13.4763 27.1839 13.5338 27.205 13.5955 27.2276C13.9326 27.3509 14.3931 27.5195 15.1907 27.5195H23.2107C24.1542 27.4016 24.626 27.2836 24.9798 27.1657C25.4515 27.0477 25.8054 26.8118 26.1592 26.458C26.4392 26.178 26.5715 25.8981 26.7313 25.5597C26.7735 25.4704 26.8176 25.3771 26.8668 25.2786C26.8851 25.2239 26.9062 25.1663 26.9287 25.1046C27.0521 24.7675 27.2207 24.3071 27.2207 23.5095V15.4895C27.1027 14.546 26.9848 14.0742 26.8668 13.7204C26.7489 13.2486 26.513 12.8948 26.1592 12.541C25.8792 12.261 25.5992 12.1287 25.2608 11.9688C25.1717 11.9267 25.0781 11.8825 24.9798 11.8333C24.925 11.8151 24.8675 11.794 24.8058 11.7714C24.4687 11.648 24.0082 11.4795 23.2107 11.4795ZM19.2007 14.428C16.3701 14.428 14.1292 16.6689 14.1292 19.4995C14.1292 22.3301 16.3701 24.571 19.2007 24.571C22.0313 24.571 24.2721 22.3301 24.2721 19.4995C24.2721 16.6689 22.0313 14.428 19.2007 14.428ZM25.5695 14.3101C25.5695 14.9615 25.0414 15.4895 24.3901 15.4895C23.7387 15.4895 23.2107 14.9615 23.2107 14.3101C23.2107 13.6587 23.7387 13.1307 24.3901 13.1307C25.0414 13.1307 25.5695 13.6587 25.5695 14.3101Z" fill="#23B2FF"/>
<path fill-rule="evenodd" clip-rule="evenodd" d="M0.330078 19.4995C0.330078 9.07756 8.77873 0.628906 19.2007 0.628906C29.6226 0.628906 38.0713 9.07756 38.0713 19.4995C38.0713 29.9214 29.6226 38.3701 19.2007 38.3701C8.77873 38.3701 0.330078 29.9214 0.330078 19.4995ZM15.1907 9.71037H23.2107C24.2721 9.82831 24.9798 9.94626 25.5695 10.1821C26.2771 10.536 26.7489 10.7718 27.3386 11.3616C27.9283 11.9513 28.2821 12.541 28.518 13.1307C28.7539 13.7204 28.9898 14.428 28.9898 15.4895V23.5095C28.8718 24.571 28.7539 25.2786 28.518 25.8683C28.1642 26.576 27.9283 27.0477 27.3386 27.6374C26.7489 28.2271 26.1592 28.581 25.5695 28.8168C24.9798 29.0527 24.2721 29.2886 23.2107 29.2886H15.1907C14.1292 29.1707 13.4215 29.0527 12.8318 28.8168C12.1242 28.463 11.6524 28.2271 11.0627 27.6374C10.473 27.0477 10.1192 26.458 9.88331 25.8683C9.64743 25.2786 9.41155 24.571 9.41155 23.5095V15.4895C9.52949 14.428 9.64743 13.7204 9.88331 13.1307C10.2371 12.423 10.473 11.9513 11.0627 11.3616C11.6524 10.7718 12.2421 10.418 12.8318 10.1821C13.4215 9.94626 14.1292 9.71037 15.1907 9.71037Z" fill="#23B2FF"/>
</svg>
