<svg width="1317" height="656" viewBox="0 0 1317 656" fill="none" xmlns="http://www.w3.org/2000/svg">
<g opacity="0.12">
<path d="M-26.9386 76.749L-27.2921 75.3616C52.8777 52.3402 118.8 58.649 180.149 95.2674C234.838 127.887 279.084 180.474 325.924 236.159C412.15 338.649 509.873 454.802 697.92 462.296C820.128 467.183 854.814 425.485 891.504 381.362C942.328 320.255 994.848 257.075 1293.07 322.247L1292.79 323.643C995.346 258.653 943.075 321.506 892.528 382.303C855.614 426.711 820.741 468.655 697.87 463.745C613.555 460.363 540.199 435.217 473.62 386.801C414.968 344.179 369.181 289.732 324.895 237.113C229.843 124.125 147.767 26.575 -26.9386 76.749Z" fill="url(#paint0_linear_1378_11240)"/>
<path d="M8.10273 81.0031L7.36862 79.1835C71.0261 51.0889 125.72 38.1152 174.546 39.4776C218.239 40.6963 256.325 53.4794 290.941 78.5353C355.273 125.095 396.265 205.393 439.67 290.412C496.48 401.68 555.199 516.728 670.981 551.245C773.48 581.833 801.318 513.944 836.552 428.018C862.735 364.121 892.445 291.704 960.075 246.697C1038.17 194.732 1152.77 189.447 1310.43 230.532L1309.97 232.46C1152.84 191.509 1038.71 196.724 961.076 248.373C893.932 293.048 864.354 365.168 838.272 428.811C821.137 470.621 804.933 510.096 780.384 534.431C753.132 561.447 718.196 567.391 670.474 553.16C553.939 518.405 494.987 402.987 437.999 291.363C394.705 206.576 353.807 126.493 289.874 80.1727C217.565 27.8353 128.039 28.0903 8.08686 81.0241L8.10273 81.0031Z" fill="url(#paint1_linear_1378_11240)"/>
<path d="M-3.56489 79.6231L-4.17822 77.9402C230.14 -15.5494 315.408 123.469 405.691 270.595C473.26 380.706 543.092 494.558 679.89 521.698C789.631 543.459 820.191 481.475 855.594 409.683C881.162 357.844 910.122 299.079 974.159 264.643C1047.55 225.157 1155.64 223.898 1304.61 260.817L1304.23 262.569C1155.67 225.756 1047.96 226.974 974.942 266.232C911.393 300.408 882.549 358.898 857.121 410.515C821.407 482.923 790.561 545.482 679.601 523.458C542.076 496.172 472.015 381.987 404.271 271.556C314.368 125.028 229.465 -13.371 -3.54908 79.6021L-3.56489 79.6231Z" fill="url(#paint2_linear_1378_11240)"/>
<path d="M-15.2027 78.2407L-15.6952 76.6958C77.6406 44.12 151.857 48.2156 217.842 89.6326C276.502 126.443 320.853 187.713 367.794 252.595C446.596 361.48 528.081 474.023 688.846 492.203C805.247 505.348 838.622 451.35 873.945 394.19C925.145 311.329 983.177 217.411 1298.79 291.165L1298.47 292.76C983.882 219.272 926.169 312.685 875.225 395.085C839.63 452.689 806.007 507.089 688.688 493.837C616.441 485.676 553.516 457.259 496.163 407.072C445.543 362.721 405.385 307.223 366.558 253.612C274.838 126.923 188.238 7.24078 -15.2343 78.2813L-15.2027 78.2407Z" fill="url(#paint3_linear_1378_11240)"/>
<path d="M-38.5264 75.4699L-38.7742 74.237C28.6504 59.6549 86.0518 67.9644 141.913 100.376C191.812 129.313 234.607 174.114 279.911 221.541C377.303 323.465 487.71 438.992 706.814 433.218C832.735 429.893 872.229 398.56 907.092 370.884C958.53 330.047 1002.96 294.779 1287.25 351.795L1287.03 353.041C1003.3 296.116 959.043 331.234 907.815 371.878C872.821 399.644 833.164 431.144 706.865 434.453C487.264 440.243 376.658 324.512 279.107 222.417C187.471 126.547 108.349 43.7127 -38.491 75.4661L-38.5264 75.4699Z" fill="url(#paint4_linear_1378_11240)"/>
<path d="M-50.1857 74.0819L-50.2933 73.0029C70.0854 57.9537 143.981 127.366 229.539 207.723C338.067 309.636 461.076 425.182 715.829 403.71C836.162 393.555 881.788 375.885 915.128 362.964C970.365 341.55 998.126 330.791 1281.49 382.129L1281.31 383.2C998.201 331.911 970.563 342.639 915.48 363.98C882.109 376.905 836.376 394.623 715.903 404.793C602.094 414.376 504.334 397.313 417.034 352.627C340.627 313.498 283.806 260.147 228.853 208.531C143.474 128.36 69.7343 59.0822 -50.1857 74.0819Z" fill="url(#paint5_linear_1378_11240)"/>
<path d="M-61.8713 72.6792L-61.8899 71.7787C32.5044 71.0183 98.249 128.073 174.39 194.105C287.648 292.354 428.594 414.602 724.796 374.225C758.183 369.684 785.517 365.813 809.622 362.406C895.951 350.209 963.337 349.855 1011.77 361.341C1055.5 371.725 1128.72 389.065 1275.69 412.497L1275.56 413.375C1128.56 389.947 1055.34 372.608 1011.59 362.207C963.249 350.734 895.967 351.096 809.744 363.294C785.639 366.702 758.305 370.573 724.918 375.114C592.826 393.125 480.544 380.94 381.694 337.855C295.5 300.308 230.87 244.242 173.873 194.819C97.8645 128.867 32.2405 71.9496 -61.8521 72.6963L-61.8713 72.6792Z" fill="url(#paint6_linear_1378_11240)"/>
<path d="M-73.5324 71.2676L-73.4425 70.5616C-3.74445 80.8704 50.9662 126.499 114.347 179.353C236.486 281.236 388.485 407.995 733.826 344.723C821.384 328.674 876.7 323.119 913.192 326.686C948.209 330.111 966.357 341.75 989.344 356.516C1029.74 382.456 1085.05 417.977 1269.95 442.843L1269.87 443.549C1084.8 418.644 1029.41 383.093 988.979 357.12C966.084 342.401 947.975 330.795 913.136 327.388C876.705 323.835 821.437 329.402 733.954 345.443C388.316 408.803 236.177 281.89 113.925 179.944C50.6216 127.157 -4.03046 81.5786 -73.5285 71.3044L-73.5324 71.2676Z" fill="url(#paint7_linear_1378_11240)"/>
<path d="M-85.2072 69.8567L-85.0438 69.3504C-38.4995 86.3327 2.24949 121.018 49.4107 161.199C171.096 264.806 337.759 406.724 742.836 315.201C929.181 273.088 959.665 308.166 1001.83 356.691C1039.64 400.194 1086.66 454.346 1264.19 473.199L1264.13 473.731C1086.43 454.86 1039.3 400.624 1001.44 357.072C959.394 308.684 928.994 273.71 742.942 315.735C563.071 356.38 415.211 355.466 290.948 312.96C183.773 276.284 112.228 215.376 49.1146 161.625C1.95699 121.482 -38.737 86.81 -85.1879 69.8738L-85.2072 69.8567Z" fill="url(#paint8_linear_1378_11240)"/>
<path d="M40.8929 191.204C18.7703 172.246 -1.16987 153.184 -19.5905 135.594C-46.3645 110.028 -71.6617 85.8638 -96.9465 68.4503L-96.7413 68.1836C-71.4565 85.5972 -46.1593 109.761 -19.3659 135.343C33.4768 185.836 94.7859 244.367 185.849 284.455C150.576 268.965 117.073 249.579 84.3386 225.747C68.9215 214.509 54.5016 202.901 40.8771 191.225L40.8929 191.204ZM359.138 328.705C460.837 339.003 588.222 329.041 751.825 285.684C840.601 262.172 901.229 259.673 942.671 277.827C980.119 294.229 998.617 326.179 1018.21 359.986C1053.9 421.619 1094.35 491.445 1258.41 503.516L1258.39 503.876C1185.16 498.499 1130.02 480.997 1089.84 450.408C1054.66 423.625 1035.98 391.354 1017.9 360.169C998.354 326.396 979.863 294.52 942.54 278.16C901.175 260.036 840.578 262.53 751.91 286.031C693.759 301.445 637.841 313.157 585.714 320.867C536.645 328.136 489.487 332.038 445.589 332.505C415.793 332.805 386.84 331.546 359.138 328.705Z" fill="url(#paint9_linear_1378_11240)"/>
<path d="M-18.2702 174.589C-45.5611 146.712 -67.9055 118.376 -88.1457 92.728C-95.2676 83.6992 -102.019 75.1562 -108.621 67.0493L-108.51 66.9059C-101.854 75.026 -95.1375 83.5721 -87.9964 92.6181C-67.6124 118.457 -45.2094 146.843 -18.2507 174.606L-18.2702 174.589ZM552.69 306.481C615.356 295.549 684.447 279.129 760.8 256.171C785.557 248.726 808.612 243.194 829.355 239.697C849.201 236.353 867.623 234.78 884.086 234.999C914.652 235.426 939.537 241.844 960.231 254.675C998.843 278.642 1016.75 321.315 1035.71 366.526C1053.23 408.357 1072.07 453.261 1110.34 486.048C1141.56 512.805 1185.71 531.475 1252.69 533.863L1252.68 534.031C1234.58 533.39 1217.47 531.529 1201.87 528.509C1187.06 525.651 1173.1 521.626 1160.43 516.581C1137.13 507.304 1117.47 494.511 1100.43 477.488C1068.86 446.011 1051.94 405.619 1035.57 366.578C1019.18 327.447 1003.54 290.188 974.593 265.386C970.132 261.561 965.34 258.035 960.176 254.832C916.925 228.016 853.606 228.488 760.892 256.35C690.595 277.488 623.546 293.819 561.591 304.919C558.63 305.445 555.67 305.972 552.724 306.477L552.69 306.481Z" fill="url(#paint10_linear_1378_11240)"/>
</g>
<defs>
<linearGradient id="paint0_linear_1378_11240" x1="838.367" y1="-66.5503" x2="402.129" y2="443.63" gradientUnits="userSpaceOnUse">
<stop stop-color="#D569F7"/>
<stop offset="1" stop-color="#6CE7EE"/>
</linearGradient>
<linearGradient id="paint1_linear_1378_11240" x1="883.106" y1="-135.472" x2="405.864" y2="421.725" gradientUnits="userSpaceOnUse">
<stop stop-color="#D569F7"/>
<stop offset="1" stop-color="#6CE7EE"/>
</linearGradient>
<linearGradient id="paint2_linear_1378_11240" x1="868.224" y1="-112.985" x2="404.113" y2="428.833" gradientUnits="userSpaceOnUse">
<stop stop-color="#D569F7"/>
<stop offset="1" stop-color="#6CE7EE"/>
</linearGradient>
<linearGradient id="paint3_linear_1378_11240" x1="853.332" y1="-90.4399" x2="402.35" y2="436.006" gradientUnits="userSpaceOnUse">
<stop stop-color="#D569F7"/>
<stop offset="1" stop-color="#6CE7EE"/>
</linearGradient>
<linearGradient id="paint4_linear_1378_11240" x1="823.617" y1="-45.447" x2="398.897" y2="450.256" gradientUnits="userSpaceOnUse">
<stop stop-color="#D569F7"/>
<stop offset="1" stop-color="#6CE7EE"/>
</linearGradient>
<linearGradient id="paint5_linear_1378_11240" x1="808.768" y1="-22.9399" x2="397.165" y2="457.409" gradientUnits="userSpaceOnUse">
<stop stop-color="#D569F7"/>
<stop offset="1" stop-color="#6CE7EE"/>
</linearGradient>
<linearGradient id="paint6_linear_1378_11240" x1="793.861" y1="-0.40929" x2="395.412" y2="464.551" gradientUnits="userSpaceOnUse">
<stop stop-color="#D569F7"/>
<stop offset="1" stop-color="#6CE7EE"/>
</linearGradient>
<linearGradient id="paint7_linear_1378_11240" x1="779.023" y1="22.1109" x2="393.701" y2="471.724" gradientUnits="userSpaceOnUse">
<stop stop-color="#D569F7"/>
<stop offset="1" stop-color="#6CE7EE"/>
</linearGradient>
<linearGradient id="paint8_linear_1378_11240" x1="764.148" y1="44.6473" x2="392.015" y2="478.856" gradientUnits="userSpaceOnUse">
<stop stop-color="#D569F7"/>
<stop offset="1" stop-color="#6CE7EE"/>
</linearGradient>
<linearGradient id="paint9_linear_1378_11240" x1="749.262" y1="67.1861" x2="388.02" y2="488.718" gradientUnits="userSpaceOnUse">
<stop stop-color="#D569F7"/>
<stop offset="1" stop-color="#6CE7EE"/>
</linearGradient>
<linearGradient id="paint10_linear_1378_11240" x1="748.425" y1="71.3986" x2="372.836" y2="509.721" gradientUnits="userSpaceOnUse">
<stop stop-color="#D569F7"/>
<stop offset="1" stop-color="#6CE7EE"/>
</linearGradient>
</defs>
</svg>
