<svg width="39" height="39" viewBox="0 0 39 39" fill="none" xmlns="http://www.w3.org/2000/svg">
<path fill-rule="evenodd" clip-rule="evenodd" d="M0.988281 19.4995C0.988281 9.07756 9.43693 0.628906 19.8589 0.628906C30.2808 0.628906 38.7295 9.07756 38.7295 19.4995C38.7295 29.9214 30.2808 38.3701 19.8589 38.3701C9.43693 38.3701 0.988281 29.9214 0.988281 19.4995ZM10.6595 16.3151V28.9348H14.6695V16.3151H10.6595ZM10.4236 12.3051C10.4236 13.6024 11.3671 14.546 12.6645 14.546C13.9618 14.546 14.9053 13.6024 14.9053 12.3051C14.9053 11.0077 13.9618 10.0642 12.6645 10.0642C11.485 10.0642 10.4236 11.0077 10.4236 12.3051ZM25.2842 28.9348H29.0583V21.1507C29.0583 17.2586 26.6995 15.9613 24.4586 15.9613C22.4536 15.9613 21.0383 17.2586 20.6845 18.0842V16.3151H16.9103V28.9348H20.9203V22.2121C20.9203 20.443 22.0997 19.4995 23.2792 19.4995C24.4586 19.4995 25.2842 20.0892 25.2842 22.0942V28.9348Z" fill="#23B2FF"/>
</svg>
