<svg width="39" height="39" viewBox="0 0 39 39" fill="none" xmlns="http://www.w3.org/2000/svg">
<path fill-rule="evenodd" clip-rule="evenodd" d="M0.318359 19.4995C0.318359 9.07756 8.76701 0.628906 19.1889 0.628906C29.6109 0.628906 38.0595 9.07756 38.0595 19.4995C38.0595 29.9214 29.6109 38.3701 19.1889 38.3701C8.76701 38.3701 0.318359 29.9214 0.318359 19.4995ZM26.3834 14.1921C27.2089 14.0742 27.9166 13.9563 28.6242 13.6024C28.1525 14.428 27.4448 15.1357 26.6192 15.6074C26.8551 21.1507 22.8451 27.1657 15.6507 27.1657C13.5278 27.1657 11.5228 26.458 9.75365 25.3966C11.7587 25.6324 13.8816 25.0427 15.2969 23.9813C13.5278 23.9813 12.1125 22.8018 11.6407 21.2686C12.2304 21.3866 12.8201 21.2686 13.4098 21.1507C11.6407 20.6789 10.3434 19.0277 10.3434 17.2586C10.9331 17.4945 11.5228 17.7304 12.1125 17.7304C10.4613 16.551 9.8716 14.3101 10.9331 12.541C12.9381 14.8998 15.7687 16.433 18.9531 16.551C18.3634 14.1921 20.2504 11.8333 22.7272 11.8333C23.7887 11.8333 24.8501 12.3051 25.5578 13.0127C26.5013 12.7768 27.3269 12.541 28.0345 12.0692C27.7987 13.0127 27.2089 13.7204 26.3834 14.1921Z" fill="#23B2FF"/>
</svg>
