<svg width="39" height="39" viewBox="0 0 39 39" fill="none" xmlns="http://www.w3.org/2000/svg">
<path d="M22.5953 19.4995L17.6417 16.6689V22.3301L22.5953 19.4995Z" fill="#23B2FF"/>
<path fill-rule="evenodd" clip-rule="evenodd" d="M0.658203 19.4995C0.658203 9.07756 9.10685 0.628906 19.5288 0.628906C29.9507 0.628906 38.3994 9.07756 38.3994 19.4995C38.3994 29.9214 29.9507 38.3701 19.5288 38.3701C9.10685 38.3701 0.658203 29.9214 0.658203 19.4995ZM26.8412 13.2486C27.6667 13.4845 28.2564 14.0742 28.4923 14.8998C28.9641 16.433 28.9641 19.4995 28.9641 19.4995C28.9641 19.4995 28.9641 22.566 28.6103 24.0992C28.3744 24.9248 27.7847 25.5145 26.9591 25.7504C25.4258 26.1042 19.5288 26.1042 19.5288 26.1042C19.5288 26.1042 13.5138 26.1042 12.0985 25.7504C11.2729 25.5145 10.6832 24.9248 10.4473 24.0992C10.0935 22.566 10.0935 19.4995 10.0935 19.4995C10.0935 19.4995 10.0935 16.433 10.3294 14.8998C10.5653 14.0742 11.155 13.4845 11.9806 13.2486C13.5138 12.8948 19.4108 12.8948 19.4108 12.8948C19.4108 12.8948 25.4259 12.8948 26.8412 13.2486Z" fill="#23B2FF"/>
</svg>
