<svg width="46" height="46" viewBox="0 0 46 46" fill="none" xmlns="http://www.w3.org/2000/svg">
<g clip-path="url(#clip0_1825_13419)">
<path d="M18.6875 25.4867V13.8663L26.6836 9.25017C28.3052 8.31348 30.1877 7.93004 32.0465 8.15777C33.9053 8.38551 35.6395 9.21205 36.987 10.5125C38.3346 11.813 39.2222 13.5167 39.5159 15.3662C39.8096 17.2158 39.4933 19.1106 38.6148 20.7645" stroke="#23B2FF" stroke-width="2" stroke-linecap="round" stroke-linejoin="round"/>
<path d="M23 27.9805L12.9375 22.1712V12.9389C12.9372 11.0664 13.5463 9.24458 14.6728 7.74879C15.7993 6.25299 17.382 5.16444 19.1818 4.64757C20.9816 4.13071 22.9007 4.21361 24.6492 4.88376C26.3977 5.55391 27.8807 6.77489 28.874 8.36226" stroke="#23B2FF" stroke-width="2" stroke-linecap="round" stroke-linejoin="round"/>
<path d="M27.3129 25.4905L17.2504 31.2998L9.2543 26.6836C7.63602 25.746 6.36635 24.3078 5.63666 22.5857C4.90697 20.8637 4.7568 18.9511 5.20878 17.1363C5.66077 15.3215 6.69041 13.7027 8.14253 12.524C9.59465 11.3454 11.3905 10.6706 13.2595 10.6016" stroke="#23B2FF" stroke-width="2" stroke-linecap="round" stroke-linejoin="round"/>
<path d="M27.314 20.5078V32.1282L19.3179 36.7444C17.6963 37.6811 15.8139 38.0645 13.9551 37.8368C12.0962 37.609 10.362 36.7825 9.01451 35.482C7.66697 34.1816 6.7793 32.4779 6.48563 30.6283C6.19196 28.7788 6.50824 26.8839 7.38668 25.23" stroke="#23B2FF" stroke-width="2" stroke-linecap="round" stroke-linejoin="round"/>
<path d="M22.999 18.0156L33.0615 23.8249V33.0573C33.0618 34.9298 32.4527 36.7516 31.3262 38.2474C30.1997 39.7432 28.617 40.8317 26.8172 41.3486C25.0174 41.8655 23.0983 41.7826 21.3498 41.1124C19.6012 40.4423 18.1183 39.2213 17.125 37.6339" stroke="#23B2FF" stroke-width="2" stroke-linecap="round" stroke-linejoin="round"/>
<path d="M18.6875 20.5046L28.75 14.6953L36.7461 19.3115C38.3685 20.2473 39.6423 21.6857 40.3748 23.4095C41.1074 25.1333 41.2589 27.0486 40.8065 28.8662C40.3541 30.6837 39.3224 32.3045 37.8672 33.4837C36.4121 34.663 34.6127 35.3365 32.7409 35.4025" stroke="#23B2FF" stroke-width="2" stroke-linecap="round" stroke-linejoin="round"/>
</g>
<defs>
<clipPath id="clip0_1825_13419">
<rect width="46" height="46" fill="white"/>
</clipPath>
</defs>
</svg>
