<svg width="33" height="32" viewBox="0 0 33 32" fill="none" xmlns="http://www.w3.org/2000/svg">
<path d="M27.5 6H5.5C4.94772 6 4.5 6.44772 4.5 7V25C4.5 25.5523 4.94772 26 5.5 26H27.5C28.0523 26 28.5 25.5523 28.5 25V7C28.5 6.44772 28.0523 6 27.5 6Z" stroke="#2E2E2E" stroke-width="1.5" stroke-linecap="round" stroke-linejoin="round"/>
<path d="M19.5 14H24.5" stroke="#2E2E2E" stroke-width="1.5" stroke-linecap="round" stroke-linejoin="round"/>
<path d="M19.5 18H24.5" stroke="#2E2E2E" stroke-width="1.5" stroke-linecap="round" stroke-linejoin="round"/>
<path d="M12.5 18C14.1569 18 15.5 16.6569 15.5 15C15.5 13.3431 14.1569 12 12.5 12C10.8431 12 9.5 13.3431 9.5 15C9.5 16.6569 10.8431 18 12.5 18Z" stroke="#2E2E2E" stroke-width="1.5" stroke-linecap="round" stroke-linejoin="round"/>
<path d="M8.5 21C8.94375 19.275 10.6363 18 12.5 18C14.3637 18 16.0575 19.2737 16.5 21" stroke="#2E2E2E" stroke-width="1.5" stroke-linecap="round" stroke-linejoin="round"/>
</svg>
