<svg width="43" height="43" viewBox="0 0 43 43" fill="none" xmlns="http://www.w3.org/2000/svg">
<g clip-path="url(#clip0_1825_13434)">
<path d="M21.5 23.5156C22.6132 23.5156 23.5156 22.6132 23.5156 21.5C23.5156 20.3868 22.6132 19.4844 21.5 19.4844C20.3868 19.4844 19.4844 20.3868 19.4844 21.5C19.4844 22.6132 20.3868 23.5156 21.5 23.5156Z" fill="#2E2E2E"/>
<path d="M21.5 12.0938C22.6132 12.0938 23.5156 11.1913 23.5156 10.0781C23.5156 8.96493 22.6132 8.0625 21.5 8.0625C20.3868 8.0625 19.4844 8.96493 19.4844 10.0781C19.4844 11.1913 20.3868 12.0938 21.5 12.0938Z" fill="#2E2E2E"/>
<path d="M21.5 34.9375C22.6132 34.9375 23.5156 34.0351 23.5156 32.9219C23.5156 31.8087 22.6132 30.9062 21.5 30.9062C20.3868 30.9062 19.4844 31.8087 19.4844 32.9219C19.4844 34.0351 20.3868 34.9375 21.5 34.9375Z" fill="#2E2E2E"/>
</g>
<defs>
<clipPath id="clip0_1825_13434">
<rect width="43" height="43" fill="white"/>
</clipPath>
</defs>
</svg>
