<svg width="33" height="32" viewBox="0 0 33 32" fill="none" xmlns="http://www.w3.org/2000/svg">
<path d="M4.5 26V8C4.5 7.73478 4.60536 7.48043 4.79289 7.29289C4.98043 7.10536 5.23478 7 5.5 7H12.1663C12.3826 7 12.5932 7.07018 12.7662 7.2L16.5 10H25.5C25.7652 10 26.0196 10.1054 26.2071 10.2929C26.3946 10.4804 26.5 10.7348 26.5 11V14" stroke="#23B2FF" stroke-width="1.5" stroke-linecap="round" stroke-linejoin="round"/>
<path d="M4.5 26L8.2725 14.6838C8.33888 14.4846 8.46623 14.3114 8.63651 14.1887C8.80678 14.066 9.01136 14 9.22125 14H29.5C29.6585 14 29.8147 14.0376 29.9557 14.1098C30.0968 14.182 30.2186 14.2867 30.3113 14.4153C30.404 14.5438 30.4647 14.6925 30.4886 14.8492C30.5125 15.0058 30.4989 15.1659 30.4487 15.3162L26.8862 26H4.5Z" stroke="#23B2FF" stroke-width="1.5" stroke-linecap="round" stroke-linejoin="round"/>
</svg>
