<svg width="70" height="48" viewBox="0 0 70 48" fill="none" xmlns="http://www.w3.org/2000/svg">
<g id="credit-card">
<rect id="BASE" width="70" height="48" rx="4" fill="#F1F6FF"/>
<g id="GooglePay">
<g id="Pay">
<path id="Union" fill-rule="evenodd" clip-rule="evenodd" d="M33.0593 31.513V25.4711H36.1776C37.4555 25.4711 38.534 25.0429 39.4132 24.1985L39.6242 23.9844C41.2303 22.2361 41.1248 19.5124 39.4132 17.8949C38.5574 17.0386 37.3851 16.5747 36.1776 16.5985H31.1719V31.513H33.0593ZM33.0595 23.6395V18.4301H36.2253C36.9053 18.4301 37.5502 18.6918 38.0309 19.1675C39.051 20.1666 39.0744 21.8317 38.0895 22.8664C37.6088 23.3778 36.9288 23.6633 36.2253 23.6395H33.0595ZM48.4283 22.1052C47.6194 21.3559 46.5175 20.9754 45.1224 20.9754C43.3288 20.9754 41.9806 21.6414 41.0897 22.9616L42.7544 24.0201C43.364 23.1162 44.1963 22.6642 45.2514 22.6642C45.9196 22.6642 46.5644 22.914 47.0685 23.366C47.5608 23.7941 47.8422 24.4126 47.8422 25.0667V25.5068C47.1154 25.1024 46.201 24.8883 45.0755 24.8883C43.7625 24.8883 42.7075 25.1976 41.922 25.8279C41.1366 26.4583 40.738 27.2908 40.738 28.3493C40.7145 29.3127 41.1248 30.2285 41.8517 30.847C42.5902 31.513 43.5281 31.846 44.6301 31.846C45.9313 31.846 46.963 31.2633 47.7484 30.0977H47.8305V31.513H49.6358V25.2213C49.6358 23.9012 49.2372 22.8545 48.4283 22.1052ZM43.3057 29.6338C42.9187 29.3484 42.6842 28.8845 42.6842 28.385C42.6842 27.826 42.9422 27.3622 43.4464 26.9935C43.9623 26.6248 44.6071 26.4345 45.3693 26.4345C46.4245 26.4226 47.2453 26.6604 47.8315 27.1362C47.8315 27.945 47.5149 28.6467 46.8935 29.2413C46.3307 29.8122 45.5686 30.1334 44.7713 30.1334C44.2437 30.1453 43.7278 29.9669 43.3057 29.6338ZM53.6921 35.9969L59.9991 21.3084H57.9476L55.0285 28.6348H54.9933L52.0039 21.3084H49.9524L54.0906 30.8589L51.746 35.9969H53.6921Z" fill="#3C4043"/>
</g>
<g id="G">
<path id="Blue" d="M26.544 24.1661C26.544 23.5834 26.4971 23.0006 26.4034 22.4297H18.4434V25.7242H23.0037C22.8161 26.7827 22.2065 27.7342 21.3155 28.3289V30.4697H24.0353C25.6296 28.983 26.544 26.7827 26.544 24.1661Z" fill="#4285F4"/>
<path id="Green" d="M18.4442 32.5392C20.7185 32.5392 22.6411 31.778 24.0361 30.4697L21.3164 28.3289C20.5544 28.8522 19.5814 29.1496 18.4442 29.1496C16.2403 29.1496 14.3763 27.6391 13.7081 25.6172H10.9062V27.8294C12.3365 30.7195 15.2555 32.5392 18.4442 32.5392Z" fill="#34A853"/>
<path id="Yellow" d="M13.708 25.6157C13.3563 24.5572 13.3563 23.4035 13.708 22.3331V20.1328H10.9058C9.69808 22.5472 9.69808 25.4016 10.9058 27.816L13.708 25.6157Z" fill="#FBBC04"/>
<path id="Red" d="M18.4442 18.8003C19.6517 18.7765 20.8123 19.2404 21.6798 20.0848L24.0948 17.6348C22.559 16.1838 20.5427 15.3869 18.4442 15.4107C15.2555 15.4107 12.3365 17.2423 10.9062 20.1324L13.7081 22.3446C14.3763 20.3108 16.2403 18.8003 18.4442 18.8003Z" fill="#EA4335"/>
</g>
</g>
</g>
</svg>
