<svg width="70" height="48" viewBox="0 0 70 48" fill="none" xmlns="http://www.w3.org/2000/svg">
<g id="credit-card">
<rect id="BASE" width="70" height="48" rx="4" fill="#F3FBFF"/>
<g id="PayPal">
<path id="Vector" d="M30.4727 35.5362L30.9017 32.8113L29.9461 32.7891H25.3828L28.5541 12.6808C28.5638 12.6201 28.5959 12.5635 28.6426 12.5233C28.6894 12.4831 28.7494 12.4609 28.8117 12.4609H36.5061C39.0606 12.4609 40.8234 12.9925 41.7438 14.0417C42.1753 14.5339 42.4501 15.0482 42.5831 15.6142C42.7224 16.2081 42.725 16.9177 42.5887 17.7831L42.5788 17.8463V18.4008L43.0105 18.6453C43.3739 18.838 43.6624 19.0587 43.8839 19.3114C44.2532 19.7322 44.492 20.267 44.5928 20.9011C44.6969 21.5533 44.6625 22.3293 44.492 23.2078C44.295 24.2185 43.9767 25.0986 43.547 25.8189C43.1514 26.4825 42.6478 27.0328 42.0499 27.4595C41.4789 27.8647 40.8005 28.1724 40.0335 28.3693C39.2902 28.5627 38.4429 28.6605 37.5135 28.6605H36.9147C36.4865 28.6605 36.0705 28.8147 35.7441 29.0912C35.4169 29.3734 35.2001 29.7588 35.1337 30.1805L35.0886 30.4258L34.3306 35.2286L34.2962 35.405C34.2872 35.4609 34.2716 35.4888 34.2487 35.5077C34.2282 35.5247 34.1986 35.5362 34.1698 35.5362H30.4727Z" fill="#253B80"/>
<path id="Vector_2" d="M43.4161 17.9102C43.3932 18.057 43.367 18.2071 43.3375 18.3613C42.3226 23.5711 38.8512 25.3709 34.4173 25.3709H32.1598C31.6177 25.3709 31.1608 25.7646 31.0762 26.2995L29.9203 33.6298L29.5931 35.7076C29.538 36.0587 29.8089 36.3754 30.1631 36.3754H34.1672C34.6414 36.3754 35.044 36.0308 35.1186 35.5633L35.158 35.3598L35.912 30.5757L35.9604 30.3133C36.0341 29.8441 36.4376 29.4996 36.9118 29.4996H37.5106C41.3898 29.4996 44.4268 27.9246 45.3144 23.3669C45.6851 21.4629 45.4932 19.8732 44.512 18.7551C44.2152 18.4179 43.8468 18.1382 43.4161 17.9102Z" fill="#179BD7"/>
<path id="Vector_3" d="M42.3527 17.4853C42.1978 17.4402 42.0377 17.3992 41.8736 17.3623C41.7088 17.3262 41.5397 17.2942 41.3659 17.2663C40.7571 17.1678 40.0903 17.1211 39.3757 17.1211H33.3449C33.1964 17.1211 33.0554 17.1547 32.9291 17.2154C32.6509 17.3491 32.4443 17.6125 32.3942 17.9348L31.1111 26.0608L31.0742 26.2979C31.1588 25.7631 31.6157 25.3693 32.1578 25.3693H34.4153C38.8492 25.3693 42.3208 23.5687 43.3355 18.3598C43.3657 18.2055 43.3912 18.0554 43.4141 17.9086C43.1574 17.7724 42.8793 17.6559 42.5799 17.5567C42.5062 17.5321 42.4299 17.5083 42.3527 17.4853Z" fill="#222D65"/>
<path id="Vector_4" d="M32.3981 17.9367C32.4481 17.6143 32.655 17.351 32.9329 17.2181C33.0602 17.1574 33.2005 17.1237 33.3488 17.1237H39.3799C40.0944 17.1237 40.7612 17.1705 41.3698 17.2689C41.5438 17.2968 41.7129 17.3288 41.8777 17.3649C42.0418 17.4018 42.2017 17.4428 42.3568 17.4879C42.4338 17.5109 42.51 17.5347 42.5847 17.5585C42.8841 17.6577 43.1623 17.7751 43.4189 17.9104C43.7209 15.9851 43.4166 14.6743 42.3757 13.4873C41.2281 12.1805 39.1567 11.6211 36.5063 11.6211H28.8117C28.2702 11.6211 27.8086 12.0148 27.7248 12.5505L24.5199 32.8655C24.4567 33.2674 24.7667 33.6301 25.1719 33.6301H29.9225L31.1152 26.0627L32.3981 17.9367Z" fill="#253B80"/>
</g>
</g>
</svg>
